<svg width="400" height="400" viewBox="0 0 400 400" xmlns="http://www.w3.org/2000/svg">
  <!-- Fundo -->
  <rect width="400" height="400" fill="#f8fafc"/>
  
  <!-- Mapa do Brasil - forma simplificada -->
  <path d="M 80 80 Q 100 60 120 70 Q 140 80 160 75 Q 180 70 200 75 Q 220 80 240 85 Q 260 90 280 95 Q 300 100 320 105 Q 340 110 360 115 Q 380 120 380 140 Q 380 160 375 180 Q 370 200 365 220 Q 360 240 355 260 Q 350 280 345 300 Q 340 320 335 340 Q 330 360 325 380 Q 320 400 300 390 Q 280 380 260 370 Q 240 360 220 350 Q 200 340 180 330 Q 160 320 140 310 Q 120 300 100 290 Q 80 280 70 260 Q 60 240 65 220 Q 70 200 75 180 Q 80 160 80 140 Q 80 120 80 100 Q 80 80 80 80 Z" 
        fill="#3b82f6" stroke="#1e40af" stroke-width="2"/>
  
  <!-- Estados principais - pontos representativos -->
  <circle cx="120" cy="120" r="8" fill="#ef4444"/>
  <circle cx="200" cy="150" r="8" fill="#10b981"/>
  <circle cx="280" cy="180" r="8" fill="#f59e0b"/>
  <circle cx="320" cy="220" r="8" fill="#8b5cf6"/>
  <circle cx="300" cy="280" r="8" fill="#06b6d4"/>
  <circle cx="250" cy="320" r="8" fill="#84cc16"/>
  <circle cx="180" cy="300" r="8" fill="#f97316"/>
  <circle cx="120" cy="280" r="8" fill="#ec4899"/>
  
  <!-- Título -->
  <text x="200" y="50" text-anchor="middle" font-family="Arial, sans-serif" font-size="18" font-weight="bold" fill="#1e293b">
    Brasil
  </text>
  
  <!-- Legenda das regiões -->
  <text x="200" y="370" text-anchor="middle" font-family="Arial, sans-serif" font-size="14" fill="#64748b">
    Cobertura Nacional
  </text>
</svg>
